<?xml version="1.0" encoding="utf-8"?>
<!-- Generator: Adobe Illustrator 22.0.0, SVG Export Plug-In . SVG Version: 6.00 Build 0)  -->
<svg version="1.1" id="Layer_1" xmlns="http://www.w3.org/2000/svg" xmlns:xlink="http://www.w3.org/1999/xlink" x="0px" y="0px"
	 viewBox="0 0 42.4 43" style="enable-background:new 0 0 42.4 43;" xml:space="preserve">
<style type="text/css">
	.st0{opacity:0.52;}
	.st1{fill:#FFBC00;}
	.st2{opacity:0.3;}
	.st3{opacity:0.3;fill:#FFBC00;enable-background:new    ;}
	.st4{fill:#0474BE;}
	.st5{fill:#FFFFFF;}
	.st6{fill:#1E323E;}
	.st7{fill:#287EE1;}
	.st8{fill:#025A92;}
	.st9{fill:#1062A9;}
	.st10{fill:#FFFFFF;stroke:#000000;stroke-width:0.4;stroke-miterlimit:10;}
</style>
<g id="Logo" transform="translate(19.000000, 56.000000)">
	<g>
		<g class="st0">
			<g id="Group-3" transform="translate(21.071038, 0.000000)">
				<g id="Clip-2">
				</g>
				<path id="Fill-1" class="st1" d="M-19-13.9c11.6,0,21.1-9.5,21.1-21.1S-7.4-56-19-56v2.6c10.2,0,18.5,8.3,18.5,18.5
					S-8.8-16.4-19-16.4V-13.9z"/>
			</g>
			<g id="Group-6" transform="translate(0.000000, 21.071038)" class="st2">
				<g id="Clip-5">
				</g>
				<path id="Fill-4" class="st1" d="M-16.4-56H-19c0,11.6,9.5,21.1,21.1,21.1v-2.6C-8.1-37.5-16.4-45.8-16.4-56"/>
			</g>
			<path id="Fill-7" class="st1" d="M-11.5-34.9c0,7.5,6.1,13.6,13.6,13.6s13.6-6.1,13.6-13.6h2.6c0,8.9-7.2,16.1-16.1,16.1
				S-14.1-26-14.1-34.9H-11.5z"/>
			<path id="Fill-9" class="st3" d="M2.1-48.5v-2.6C-6.8-51.1-14-43.9-14-35h2.6C-11.5-42.4-5.4-48.5,2.1-48.5"/>
			<path id="Fill-11" class="st1" d="M2.1-43.5c-4.7,0-8.6,3.9-8.6,8.6s3.9,8.6,8.6,8.6v2.6c-6.2,0-11.2-5-11.2-11.2
				s5-11.2,11.2-11.2"/>
			<path id="Fill-13" class="st3" d="M2.1-46.1v2.6c4.7,0,8.6,3.9,8.6,8.6h2.6C13.2-41.1,8.2-46.1,2.1-46.1"/>
			<path id="Fill-15" class="st1" d="M2.1-41.2c3.4,0,6.2,2.8,6.2,6.2s-2.8,6.2-6.2,6.2v-2.6c2,0,3.7-1.6,3.7-3.7s-1.6-3.7-3.7-3.7"
				/>
			<path id="Fill-17" class="st3" d="M2.1-41.2c-3.4,0-6.2,2.8-6.2,6.2h2.6c0-2,1.6-3.7,3.7-3.7v-2.5H2.1z"/>
			<path id="Fill-19" class="st1" d="M9.9-27l-1.8-1.8l0,0c-0.7,0.7-1.5,1.3-2.5,1.8l1.1,2.3C7.9-25.3,9-26.1,9.9-27"/>
			<path id="Fill-21" class="st1" d="M-6.8-54c-2.3,1-4.4,2.5-6.1,4.2l1.8,1.9c1.5-1.5,3.3-2.8,5.4-3.8L-6.8-54z"/>
			<path id="Fill-23" class="st1" d="M16.7-41.7c-0.8-1.8-1.9-3.3-3.2-4.7l-1.8,1.8c1.1,1.1,2.1,2.4,2.8,3.9L16.7-41.7z"/>
		</g>
	</g>
</g>
<g id="Logo_1_" transform="translate(39.959719, 10.000000)">
	<g id="Base_1_" transform="translate(12.562825, 195.083415)">
		<polygon id="Path-38" class="st4" points="-39.8,-182 -37.7,-172.9 -35.1,-172.9 -30.5,-182 -25.8,-172.9 -23.2,-172.9 
			-21.2,-182 		"/>
		<path id="Left-Flap" class="st5" d="M-35-173l-2.6-3.8c-0.1-0.1,0-0.1,0-0.2l7.3-5.1L-35-173L-35-173z"/>
		<path id="Left-Flap_1_" class="st5" d="M-25.8-173l2.6-3.8c0.1-0.1,0-0.1,0-0.2l-7.3-5.1L-25.8-173L-25.8-173z"/>
		<polygon id="Shadow" class="st6" points="-34.4,-174.3 -30.5,-182 -26.5,-174.3 		"/>
	</g>
	<path id="Shape" class="st7" d="M-7.5,10.8L-7.5,10.8c-0.1-0.2-1-3.1-1.1-3.1c0-0.1-1.8-5.1-1.9-5.2c-0.3,0-0.8,0-1.5-0.1
		c-0.6-0.1-1.8-0.2-3.1-1c-1.4-0.8-2.3-1.9-2.6-2.6c0.9,1.9,2.4,4.4,4.5,6.9C-11.1,8.1-9.1,9.7-7.5,10.8L-7.5,10.8z"/>
	<path id="Shape_1_" class="st8" d="M-22.7,5.7c2.2-2.6,3.7-5,4.7-7c0,0-0.6,1.5-2.2,2.4c-1.2,0.8-2.3,1-3,1.1
		c-0.8,0.1-1.5,0.1-1.9,0.1c-1.1,2.8-2.2,5.6-3.3,8.4l0,0l0,0C-26.6,9.6-24.7,8-22.7,5.7L-22.7,5.7z"/>
	<path id="Shape_2_" class="st9" d="M-7.5,10.8L-7.5,10.8c-1.7-1.1-3.6-2.7-5.6-5c-2.2-2.5-3.6-4.9-4.5-6.9
		c-0.1-0.1-0.1-0.3-0.2-0.5c-0.1,0-0.1,0-0.1-0.1c0,0.1-0.1,0.1-0.1,0.2c-1,1.9-2.4,4.4-4.7,7c-2,2.3-4,3.9-5.7,5.1"/>
	<path id="Shape_3_" class="st8" d="M-17.9,13h9.4h0.7l0.4-2.2c-7,0-13.9-0.1-20.9-0.1l0.6,2.3h0.6H-17.9L-17.9,13z"/>
	<path id="Flag" class="st10" d="M-16.1-1.2c0.8,0,1.2-0.3,1.9-0.5c0.6-0.1,1.5-0.3,2.8,0c-0.3-0.3-0.7-0.8-1.3-1.1
		c-0.4-0.3-0.8-0.5-1.1-0.7c0.1-0.3,0.3-0.6,0.6-0.8c0.8-0.8,1.6-1.1,2.1-1.3c-0.5-0.1-1.2-0.2-1.9-0.1c-1.3,0.1-1.8,0.7-3,0.8
		c-0.5,0-1.1,0-1.9-0.3v3.6c0,0,0.1,0,0.1,0.1c0.1,0,0.1,0,0.1,0.1C-17.3-1.3-16.8-1.2-16.1-1.2L-16.1-1.2z"/>
</g>
</svg>
