<?xml version="1.0" encoding="utf-8"?>
<svg version="1.1" id="Layer_1" xmlns="http://www.w3.org/2000/svg" xmlns:xlink="http://www.w3.org/1999/xlink" x="0px" y="0px"
	 viewBox="0 0 241 43" style="enable-background:new 0 0 241 43;" xml:space="preserve">
<style type="text/css">
	.st0{opacity:0.52;}
	.st1{fill:#FFBC00;}
	.st2{opacity:0.3;}
	.st3{opacity:0.3;fill:#FFBC00;enable-background:new    ;}
	.st4{fill:#424242;}
	.st5{fill:#0474BE;}
	.st6{fill:#FFFFFF;}
	.st7{fill:#1E323E;}
	.st8{fill:#287EE1;}
	.st9{fill:#025A92;}
	.st10{fill:#1062A9;}
	.st11{fill:#FFFFFF;stroke:#000000;stroke-width:0.4;stroke-miterlimit:10;}
</style>
<g id="Logo" transform="translate(19.000000, 56.000000)">
	<g>
		<g class="st0">
			<g id="Group-3" transform="translate(21.071038, 0.000000)">
				<g id="Clip-2">
				</g>
				<path id="Fill-1" class="st1" d="M-19-13.9c11.6,0,21.1-9.5,21.1-21.1S-7.4-56-19-56v2.6c10.2,0,18.5,8.3,18.5,18.5
					S-8.8-16.4-19-16.4V-13.9z"/>
			</g>
			<g id="Group-6" transform="translate(0.000000, 21.071038)" class="st2">
				<g id="Clip-5">
				</g>
				<path id="Fill-4" class="st1" d="M-16.4-56H-19c0,11.6,9.5,21.1,21.1,21.1v-2.6C-8.1-37.5-16.4-45.8-16.4-56"/>
			</g>
			<path id="Fill-7" class="st1" d="M-11.5-34.9c0,7.5,6.1,13.6,13.6,13.6s13.6-6.1,13.6-13.6h2.6c0,8.9-7.2,16.1-16.1,16.1
				S-14.1-26-14.1-34.9H-11.5z"/>
			<path id="Fill-9" class="st3" d="M2.1-48.5v-2.6C-6.8-51.1-14-43.9-14-35h2.6C-11.5-42.4-5.4-48.5,2.1-48.5"/>
			<path id="Fill-11" class="st1" d="M2.1-43.5c-4.7,0-8.6,3.9-8.6,8.6c0,4.7,3.9,8.6,8.6,8.6v2.6c-6.2,0-11.2-5-11.2-11.2
				s5-11.2,11.2-11.2"/>
			<path id="Fill-13" class="st3" d="M2.1-46.1v2.6c4.7,0,8.6,3.9,8.6,8.6h2.6C13.2-41.1,8.2-46.1,2.1-46.1"/>
			<path id="Fill-15" class="st1" d="M2.1-41.2c3.4,0,6.2,2.8,6.2,6.2s-2.8,6.2-6.2,6.2v-2.6c2,0,3.7-1.6,3.7-3.7
				c0-2.1-1.6-3.7-3.7-3.7"/>
			<path id="Fill-17" class="st3" d="M2.1-41.2c-3.4,0-6.2,2.8-6.2,6.2h2.6c0-2,1.6-3.7,3.7-3.7v-2.5H2.1z"/>
			<path id="Fill-19" class="st1" d="M9.9-27l-1.8-1.8l0,0c-0.7,0.7-1.5,1.3-2.5,1.8l1.1,2.3C7.9-25.3,9-26.1,9.9-27"/>
			<path id="Fill-21" class="st1" d="M-6.8-54c-2.3,1-4.4,2.5-6.1,4.2l1.8,1.9c1.5-1.5,3.3-2.8,5.4-3.8L-6.8-54z"/>
			<path id="Fill-23" class="st1" d="M16.7-41.7c-0.8-1.8-1.9-3.3-3.2-4.7l-1.8,1.8c1.1,1.1,2.1,2.4,2.8,3.9L16.7-41.7z"/>
		</g>
		<path id="Fill-25" class="st1" d="M130-30.9v1.6c0,1.4,1.8,2.3,3.9,2.3c2.2,0,3.8-1,3.8-2.7c0-2.2-2.5-2.9-5-3.9
			c-2.9-1.1-5.8-2.4-5.8-6.4c0-4.4,3.6-6.1,7.4-6.1c3.5,0,7,1.3,7,3.9v2.9h-3.7v-1.5c0-1.1-1.6-1.7-3.3-1.7c-1.8,0-3.3,0.7-3.3,2.4
			c0,2,2,2.7,4.3,3.6c3.3,1.2,6.6,2.5,6.6,6.6c0,4.5-3.8,6.6-7.9,6.6c-3.7,0-7.6-1.6-7.6-5v-2.5h3.6V-30.9z"/>
		<path id="Fill-27" class="st1" d="M146.3-36.7h-2.4v-2.9h2.5V-44h3.8v4.3h3.6v2.9h-3.6v6.8c0,2.7,2,3.1,3.2,3.1c0.4,0,0.7,0,0.7,0
			v3.2c0,0-0.5,0.1-1.2,0.1c-2.2,0-6.6-0.7-6.6-5.9V-36.7z"/>
		<path id="Fill-29" class="st1" d="M162.2-26.4c2.1,0,3.7-2.3,3.7-4.3v-0.5h-0.7c-1.5,0-5.3,0.2-5.3,2.6
			C159.9-27.4,160.7-26.4,162.2-26.4 M164.8-33.6h1v-0.5c0-2-1.3-2.7-2.9-2.7c-2.4,0-4.5,1.5-4.5,1.5l-1.5-2.7c0,0,2.4-2,6.3-2
			c4.2,0,6.5,2.2,6.5,6.2v6.3c0,0.5,0.2,0.7,0.7,0.7h1.4v2.9h-3.7c-1.5,0-2-0.8-2-1.7v-0.2c0-0.5,0.1-0.8,0.1-0.8h-0.1
			c0,0-1.3,3-5,3c-2.7,0-5.2-1.6-5.2-4.8C155.9-33.1,162.3-33.6,164.8-33.6"/>
		<path id="Fill-31" class="st1" d="M174-26.8h2.3v-9.3c0-0.4-0.2-0.7-0.7-0.7h-1.8v-2.9h4.1c1.4,0,2.1,0.7,2.1,1.8v0.7
			c0,0.3-0.1,0.7-0.1,0.7h0.1c0.8-1.6,2.8-3.5,5.4-3.5c2.2,0,3.8,1,4.4,3.4h0.1c0.9-1.9,3-3.4,5.5-3.4c3.2,0,5.1,1.9,5.1,6v7.2h2.3
			v2.9h-6.2v-9.4c0-1.8-0.3-3.2-2.2-3.2c-2.7,0-4,2.7-4,5.6v4h2.3v2.9h-6.2v-9.4c0-1.7-0.3-3.2-2.1-3.2c-2.8,0-4.1,2.9-4.1,5.8v3.8
			h2.3v2.9H174V-26.8z"/>
		<path id="Fill-33" class="st1" d="M213.7-26.8c2.2,0,4-1.8,4-4.9c0-3-1.6-5-3.9-5c-2,0-4,1.5-4,5
			C209.8-29.2,211.1-26.8,213.7-26.8z M206-20.6V-36c0-0.4-0.2-0.7-0.7-0.7h-1.8v-2.9h4.1c1.5,0,2,0.7,2,1.5v0.1c0,0.4,0,0.7,0,0.7
			h0.1c0,0,1.4-2.7,5.1-2.7c4.3,0,7,3.4,7,8.3c0,5-3.1,8.3-7.2,8.3c-3.1,0-4.6-2.2-4.6-2.2h-0.1c0,0,0.1,0.6,0.1,1.4v3.7h2.3v2.9
			h-8.5v-2.9L206-20.6L206-20.6z"/>
		<path id="Fill-35" class="st4" d="M50.3-27.1c0.5,0,1.1-0.1,1.6-0.2c1.1-0.5,1.8-1.7,1.8-3.1c0-1.9-1.2-3.2-3.2-3.2h-4.2v6.5
			C46.3-27.1,50.3-27.1,50.3-27.1z M50.1-36.9c1.7,0,2.7-1.2,2.7-2.9c0-1.1-0.4-2-1.3-2.5c-0.5-0.2-1.1-0.3-1.9-0.3h-3.4v5.7H50.1z
			 M39.5-26.9h2.6v-15.9h-2.6v-3.1h10.1c1.6,0,2.8,0.1,3.9,0.6c2,0.8,3.3,2.6,3.3,5.1c0,2-1,3.8-2.7,4.7v0.1
			c2.4,0.7,3.6,2.9,3.6,5.2c0,3.1-2,5.3-4.4,6c-1.1,0.3-2.1,0.4-3.3,0.4H39.5V-26.9z"/>
		<path id="Fill-37" class="st4" d="M61.6-42.9h-2.4v-2.9h6.3v16.7c0,1.4,0.3,2.2,1.6,2.2c0.4,0,0.7,0,0.7,0v3.2
			c0,0-0.7,0.1-1.4,0.1c-2.5,0-4.8-0.8-4.8-5.1C61.6-28.7,61.6-42.9,61.6-42.9z"/>
		<path id="Fill-39" class="st4" d="M78.5-26.8c2.5,0,4.7-2,4.7-4.9s-2.1-4.9-4.7-4.9s-4.7,2-4.7,4.9S75.9-26.8,78.5-26.8 M78.4-40
			c4.8,0,8.7,3.4,8.7,8.3s-3.9,8.3-8.7,8.3c-4.8,0-8.7-3.4-8.7-8.3C69.8-36.6,73.6-40,78.4-40"/>
		<path id="Fill-41" class="st4" d="M97.7-40c2.6,0,6.5,1,6.5,3.8v2.2h-3.4v-1.1c0-1.1-1.6-1.5-2.9-1.5c-2.9,0-4.6,2-4.6,4.9
			c0,3.3,2.3,5,5,5c2.2,0,4.1-1.2,4.9-1.9l1.4,2.8c-1.1,1-3.5,2.4-6.5,2.4c-4.6,0-8.7-3.1-8.7-8.2C89.2-36.4,92.9-40,97.7-40"/>
		<path id="Fill-43" class="st4" d="M106.4-26.8h2.3v-16.1h-2.4v-2.9h6.4v12.2h2.1l2.6-3h-1.8v-2.9h7.6v2.9h-2l-3.4,4.1v0.1
			c0,0,0.6,0.3,1.2,1.3l2.2,3.9c0.3,0.5,0.6,0.6,1.3,0.6h0.9v2.9h-2.9c-1.3,0-1.9-0.2-2.5-1.4l-2.8-5c-0.3-0.6-0.8-0.6-1.4-0.6h-0.9
			v4h1.7v2.9h-7.9v-3H106.4z"/>
	</g>
</g>
<g id="Logo_1_" transform="translate(39.959719, 10.000000)">
	<g id="Base_1_" transform="translate(12.562825, 195.083415)">
		<polygon id="Path-38" class="st5" points="-43.4,-177.7 -40.4,-164.6 -36.7,-164.6 -30,-177.7 -23.3,-164.6 -19.6,-164.6
			-16.6,-177.7 		"/>
		<path id="Left-Flap" class="st6" d="M-36.6-164.7l-3.8-5.5c-0.1-0.1,0-0.2,0-0.3l10.5-7.3L-36.6-164.7L-36.6-164.7z"/>
		<path id="Left-Flap_1_" class="st6" d="M-23.3-164.7l3.8-5.5c0.1-0.1,0-0.2,0-0.3l-10.5-7.3L-23.3-164.7L-23.3-164.7z"/>
		<polygon id="Shadow" class="st7" points="-35.7,-166.5 -30,-177.7 -24.3,-166.5 		"/>
	</g>
	<path id="Shape" class="st8" d="M-2.4,14.2L-2.4,14.2C-2.5,13.9-3.9,9.8-4,9.8c0-0.1-2.6-7.4-2.7-7.5c-0.5,0-1.2,0-2.1-0.1
		c-0.9-0.1-2.6-0.3-4.4-1.4c-2-1.2-3.3-2.8-3.8-3.7c1.3,2.8,3.4,6.3,6.5,9.9C-7.6,10.3-4.8,12.6-2.4,14.2L-2.4,14.2z"/>
	<path id="Shape_1_" class="st9" d="M-24.3,6.8c3.2-3.7,5.3-7.2,6.7-10.1c0,0-0.9,2.1-3.1,3.5C-22.4,1.4-24,1.7-25,1.8
		C-26.2,2-27.1,2-27.8,2c-1.6,4-3.1,8-4.7,12.1l0,0h0C-30,12.4-27.2,10.1-24.3,6.8L-24.3,6.8z"/>
	<path id="Shape_2_" class="st10" d="M-2.4,14.2L-2.4,14.2c-2.4-1.6-5.2-3.9-8.1-7.2c-3.2-3.6-5.2-7.1-6.5-9.9
		c-0.1-0.2-0.2-0.5-0.3-0.7c-0.1,0-0.1,0-0.2-0.1c0,0.1-0.1,0.2-0.2,0.3c-1.4,2.8-3.5,6.4-6.7,10.1c-2.9,3.3-5.8,5.6-8.2,7.3"/>
	<path id="Shape_3_" class="st9" d="M-17.5,17.3l13.5,0H-3l0.6-3.2c-10.1,0-20-0.1-30.1-0.1l0.8,3.3h0.9L-17.5,17.3L-17.5,17.3z"/>
	<path id="Flag" class="st11" d="M-14.9-3.1c1.1,0,1.7-0.4,2.8-0.7c0.9-0.2,2.2-0.4,4,0c-0.4-0.5-1-1.1-1.8-1.6
		c-0.6-0.4-1.1-0.7-1.6-1c0.2-0.4,0.5-0.8,0.9-1.2c1.1-1.2,2.3-1.6,3-1.8c-0.7-0.2-1.7-0.3-2.7-0.2c-1.9,0.2-2.6,1-4.4,1.1
		c-0.7,0-1.6,0-2.7-0.4v5.2c0,0,0.1,0,0.2,0.1c0.1,0,0.1,0,0.2,0.1C-16.6-3.3-15.8-3.1-14.9-3.1L-14.9-3.1z"/>
</g>
</svg>
