<?xml version="1.0" encoding="utf-8"?>
<svg version="1.1" id="Layer_1" xmlns="http://www.w3.org/2000/svg" xmlns:xlink="http://www.w3.org/1999/xlink" x="0px" y="0px"
	 viewBox="0 0 42.4 43" style="enable-background:new 0 0 42.4 43;" xml:space="preserve">
<style type="text/css">
	.st0{opacity:0.52;}
	.st1{fill:#FFBC00;}
	.st2{opacity:0.3;}
	.st3{opacity:0.3;fill:#FFBC00;enable-background:new    ;}
	.st4{fill:#0474BE;}
	.st5{fill:#FFFFFF;}
	.st6{fill:#1E323E;}
	.st7{fill:#287EE1;}
	.st8{fill:#025A92;}
	.st9{fill:#1062A9;}
	.st10{fill:#FFFFFF;stroke:#000000;stroke-width:0.4;stroke-miterlimit:10;}
</style>
<g id="Logo" transform="translate(19.000000, 56.000000)">
	<g>
		<g class="st0">
			<g id="Group-3" transform="translate(21.071038, 0.000000)">
				<g id="Clip-2">
				</g>
				<path id="Fill-1" class="st1" d="M-19-13.9c11.6,0,21.1-9.5,21.1-21.1S-7.4-56-19-56v2.6c10.2,0,18.5,8.3,18.5,18.5
					S-8.8-16.4-19-16.4V-13.9z"/>
			</g>
			<g id="Group-6" transform="translate(0.000000, 21.071038)" class="st2">
				<g id="Clip-5">
				</g>
				<path id="Fill-4" class="st1" d="M-16.4-56H-19c0,11.6,9.5,21.1,21.1,21.1v-2.6C-8.1-37.5-16.4-45.8-16.4-56"/>
			</g>
			<path id="Fill-7" class="st1" d="M-11.5-34.9c0,7.5,6.1,13.6,13.6,13.6s13.6-6.1,13.6-13.6h2.6c0,8.9-7.2,16.1-16.1,16.1
				S-14.1-26-14.1-34.9H-11.5z"/>
			<path id="Fill-9" class="st3" d="M2.1-48.5v-2.6C-6.8-51.1-14-43.9-14-35h2.6C-11.5-42.4-5.4-48.5,2.1-48.5"/>
			<path id="Fill-11" class="st1" d="M2.1-43.5c-4.7,0-8.6,3.9-8.6,8.6c0,4.7,3.9,8.6,8.6,8.6v2.6c-6.2,0-11.2-5-11.2-11.2
				s5-11.2,11.2-11.2"/>
			<path id="Fill-13" class="st3" d="M2.1-46.1v2.6c4.7,0,8.6,3.9,8.6,8.6h2.6C13.2-41.1,8.2-46.1,2.1-46.1"/>
			<path id="Fill-15" class="st1" d="M2.1-41.2c3.4,0,6.2,2.8,6.2,6.2s-2.8,6.2-6.2,6.2v-2.6c2,0,3.7-1.6,3.7-3.7
				c0-2.1-1.6-3.7-3.7-3.7"/>
			<path id="Fill-17" class="st3" d="M2.1-41.2c-3.4,0-6.2,2.8-6.2,6.2h2.6c0-2,1.6-3.7,3.7-3.7v-2.5H2.1z"/>
			<path id="Fill-19" class="st1" d="M9.9-27l-1.8-1.8l0,0c-0.7,0.7-1.5,1.3-2.5,1.8l1.1,2.3C7.9-25.3,9-26.1,9.9-27"/>
			<path id="Fill-21" class="st1" d="M-6.8-54c-2.3,1-4.4,2.5-6.1,4.2l1.8,1.9c1.5-1.5,3.3-2.8,5.4-3.8L-6.8-54z"/>
			<path id="Fill-23" class="st1" d="M16.7-41.7c-0.8-1.8-1.9-3.3-3.2-4.7l-1.8,1.8c1.1,1.1,2.1,2.4,2.8,3.9L16.7-41.7z"/>
		</g>
	</g>
</g>
<g id="Logo_1_" transform="translate(39.959719, 10.000000)">
	<g id="Base_1_" transform="translate(12.562825, 195.083415)">
		<polygon id="Path-38" class="st4" points="-43.4,-177.7 -40.4,-164.6 -36.7,-164.6 -30,-177.7 -23.3,-164.6 -19.6,-164.6
			-16.6,-177.7 		"/>
		<path id="Left-Flap" class="st5" d="M-36.6-164.7l-3.8-5.5c-0.1-0.1,0-0.2,0-0.3l10.5-7.3L-36.6-164.7L-36.6-164.7z"/>
		<path id="Left-Flap_1_" class="st5" d="M-23.3-164.7l3.8-5.5c0.1-0.1,0-0.2,0-0.3l-10.5-7.3L-23.3-164.7L-23.3-164.7z"/>
		<polygon id="Shadow" class="st6" points="-35.7,-166.5 -30,-177.7 -24.3,-166.5 		"/>
	</g>
	<path id="Shape" class="st7" d="M-2.4,14.2L-2.4,14.2C-2.5,13.9-3.9,9.8-4,9.8c0-0.1-2.6-7.4-2.7-7.5c-0.5,0-1.2,0-2.1-0.1
		c-0.9-0.1-2.6-0.3-4.4-1.4c-2-1.2-3.3-2.8-3.8-3.7c1.3,2.8,3.4,6.3,6.5,9.9C-7.6,10.3-4.8,12.6-2.4,14.2L-2.4,14.2z"/>
	<path id="Shape_1_" class="st8" d="M-24.3,6.8c3.2-3.7,5.3-7.2,6.7-10.1c0,0-0.9,2.1-3.1,3.5C-22.4,1.4-24,1.7-25,1.8
		C-26.2,2-27.1,2-27.8,2c-1.6,4-3.1,8-4.7,12.1l0,0h0C-30,12.4-27.2,10.1-24.3,6.8L-24.3,6.8z"/>
	<path id="Shape_2_" class="st9" d="M-2.4,14.2L-2.4,14.2c-2.4-1.6-5.2-3.9-8.1-7.2c-3.2-3.6-5.2-7.1-6.5-9.9
		c-0.1-0.2-0.2-0.5-0.3-0.7c-0.1,0-0.1,0-0.2-0.1c0,0.1-0.1,0.2-0.2,0.3c-1.4,2.8-3.5,6.4-6.7,10.1c-2.9,3.3-5.8,5.6-8.2,7.3"/>
	<path id="Shape_3_" class="st8" d="M-17.5,17.3l13.5,0H-3l0.6-3.2c-10.1,0-20-0.1-30.1-0.1l0.8,3.3h0.9L-17.5,17.3L-17.5,17.3z"/>
	<path id="Flag" class="st10" d="M-14.9-3.1c1.1,0,1.7-0.4,2.8-0.7c0.9-0.2,2.2-0.4,4,0c-0.4-0.5-1-1.1-1.8-1.6
		c-0.6-0.4-1.1-0.7-1.6-1c0.2-0.4,0.5-0.8,0.9-1.2c1.1-1.2,2.3-1.6,3-1.8c-0.7-0.2-1.7-0.3-2.7-0.2c-1.9,0.2-2.6,1-4.4,1.1
		c-0.7,0-1.6,0-2.7-0.4v5.2c0,0,0.1,0,0.2,0.1c0.1,0,0.1,0,0.2,0.1C-16.6-3.3-15.8-3.1-14.9-3.1L-14.9-3.1z"/>
</g>
</svg>
