<?xml version="1.0" encoding="UTF-8"?>
<svg width="241px" height="43px" viewBox="0 0 241 43" version="1.1" xmlns="http://www.w3.org/2000/svg" xmlns:xlink="http://www.w3.org/1999/xlink">
    <!-- Generator: sketchtool 51.2 (57519) - http://www.bohemiancoding.com/sketch -->
    <title>40C8CEBA-402D-4CEF-8BEB-713A314F4B7E</title>
    <desc>Created with sketchtool.</desc>
    <defs>
        <polygon id="path-1" points="0 0 21.0710383 0 21.0710383 42.1420344 0 42.1420344"/>
        <polygon id="path-3" points="0 -4.21420765e-05 21.0709961 -4.21420765e-05 21.0709961 21.0709961 0 21.0709961"/>
    </defs>
    <g id="Casino_LP" stroke="none" stroke-width="1" fill="none" fill-rule="evenodd">
        <g id="1.0-BST_LP" transform="translate(-19.000000, -56.000000)">
            <g id="TOP">
                <g id="Logo" transform="translate(19.000000, 56.000000)">
                    <g>
                        <g id="Group-3" transform="translate(21.071038, 0.000000)">
                            <mask id="mask-2" fill="white">
                                <use xlink:href="#path-1"/>
                            </mask>
                            <g id="Clip-2"/>
                            <path d="M0,42.1420344 C11.6185705,42.1420344 21.0710383,32.6895666 21.0710383,21.0709961 C21.0710383,9.45242562 11.6185705,-4.21420765e-05 0,-4.21420765e-05 L0,2.56514605 C10.2042824,2.56514605 18.5058501,10.8671351 18.5058501,21.0709961 C18.5058501,31.2752785 10.2042824,39.5768462 0,39.5768462 L0,42.1420344 Z" id="Fill-1" fill="#FFBC00" mask="url(#mask-2)"/>
                        </g>
                        <g id="Group-6" opacity="0.3" transform="translate(0.000000, 21.071038)">
                            <mask id="mask-4" fill="white">
                                <use xlink:href="#path-3"/>
                            </mask>
                            <g id="Clip-5"/>
                            <path d="M2.56556748,-4.21420765e-05 L-4.21420765e-05,-4.21420765e-05 C-4.21420765e-05,11.6185283 9.45242562,21.0709961 21.0709961,21.0709961 L21.0709961,18.5058079 C10.8671351,18.5058079 2.56556748,10.2042403 2.56556748,-4.21420765e-05" id="Fill-4" fill="#FFBC00" mask="url(#mask-4)"/>
                        </g>
                        <path d="M7.51233084,21.0709961 C7.51233084,28.5474219 13.5946967,34.6297878 21.0711225,34.6297878 C28.5475483,34.6297878 34.6299142,28.5474219 34.6299142,21.0709961 L37.1951024,21.0709961 C37.1951024,29.96171 29.9618364,37.194976 21.0711225,37.194976 C12.1804087,37.194976 4.94714264,29.96171 4.94714264,21.0709961 L7.51233084,21.0709961 Z" id="Fill-7" fill="#FFBC00"/>
                        <path d="M21.0710383,7.5122887 L21.0710383,4.9471005 C12.1803244,4.9471005 4.94705836,12.1803665 4.94705836,21.0710804 L7.51224656,21.0710804 C7.51224656,13.5946546 13.5950339,7.5122887 21.0710383,7.5122887" id="Fill-9" fill="#FFBC00" opacity="0.3"/>
                        <path d="M21.0710383,12.4594735 C16.3224691,12.4594735 12.4593049,16.3226376 12.4593049,21.0712068 C12.4593049,25.819776 16.3224691,29.6829402 21.0710383,29.6829402 L21.0710383,32.2481283 C14.908181,32.2481283 9.89453814,27.2340641 9.89453814,21.0712068 C9.89453814,14.9083496 14.908181,9.89428529 21.0710383,9.89428529" id="Fill-11" fill="#FFBC00"/>
                        <path d="M21.0710383,9.89432743 L21.0710383,12.4595156 C25.8196074,12.4595156 29.683193,16.3226798 29.683193,21.0708275 L32.2475384,21.0708275 C32.2475384,14.9079703 27.2338955,9.89432743 21.0710383,9.89432743" id="Fill-13" fill="#FFBC00" opacity="0.3"/>
                        <path d="M21.0710383,14.8412594 C24.5060389,14.8412594 27.3009014,17.6357005 27.3009014,21.0711225 C27.3009014,24.5061232 24.5060389,27.3005643 21.0710383,27.3005643 L21.0710383,24.7357975 C23.0917508,24.7357975 24.7357132,23.0918351 24.7357132,21.0711225 C24.7357132,19.05041 23.0917508,17.4064476 21.0710383,17.4064476" id="Fill-15" fill="#FFBC00"/>
                        <path d="M21.0710383,14.8412594 C17.636459,14.8412594 14.8415965,17.6357005 14.8415965,21.0711225 L17.4067847,21.0711225 C17.4067847,19.05041 19.0503257,17.4064476 21.0710383,17.4064476 L21.0710383,14.8412594 Z" id="Fill-17" fill="#FFBC00" opacity="0.3"/>
                        <path d="M28.9212221,28.9924001 L27.1074271,27.1786051 C27.1150127,27.1710195 27.1217555,27.163434 27.129341,27.1558484 C26.4247255,27.8672066 25.5844125,28.4668884 24.6231517,28.910223 L25.6973533,31.239837 C26.9316947,30.6704976 28.012639,29.9026689 28.9212221,28.9924001" id="Fill-19" fill="#FFBC00"/>
                        <path d="M12.1973498,1.95358024 C9.86984289,3.02651751 7.83143064,4.47367642 6.11877666,6.19012319 L7.87567983,8.06333849 C9.39195174,6.53020975 11.2006897,5.23771226 13.2711299,4.28319423 L12.1973498,1.95358024 Z" id="Fill-21" fill="#FFBC00"/>
                        <path d="M35.6610887,14.3393894 C34.840161,12.5584652 33.7326673,10.998787 32.4195202,9.68816839 L30.5699044,11.4678283 C31.6896194,12.5770077 32.6336019,13.8998475 33.3318961,15.4131695 L35.6610887,14.3393894 Z" id="Fill-23" fill="#FFBC00"/>
                        <path d="M148.999001,25.0547709 L148.999001,26.6962048 C148.999001,28.120607 150.795096,28.9567057 152.870172,28.9567057 C155.099909,28.9567057 156.679394,27.9967092 156.679394,26.2313777 C156.679394,24.0016404 154.170255,23.2894393 151.631195,22.2982577 C148.689256,21.1835997 145.809267,19.8519101 145.809267,15.9187901 C145.809267,11.4900793 149.401457,9.78711799 153.179495,9.78711799 C156.647788,9.78711799 160.147687,11.1188076 160.147687,13.6582891 L160.147687,16.5382786 L156.462362,16.5382786 L156.462362,15.0519276 C156.462362,13.9368483 154.820929,13.3485449 153.179495,13.3485449 C151.383399,13.3485449 149.897048,14.0915097 149.897048,15.7641287 C149.897048,17.7768343 151.940518,18.4894568 154.232625,19.3567407 C157.515493,20.5333475 160.797939,21.833852 160.797939,25.9528185 C160.797939,30.4430568 157.019902,32.5181326 152.870172,32.5181326 C149.215611,32.5181326 145.313676,30.8766988 145.313676,27.5630673 L145.313676,25.0547709 L148.999001,25.0547709 Z" id="Fill-25" fill="#FFBC00"/>
                        <path d="M165.286239,19.2943704 L162.871077,19.2943704 L162.871077,16.3524321 L165.410558,16.3524321 L165.410558,12.0480404 L169.219359,12.0480404 L169.219359,16.3524321 L172.81155,16.3524321 L172.81155,19.2943704 L169.219359,19.2943704 L169.219359,25.9528185 C169.219359,28.6469615 171.263671,29.0186546 172.378329,29.0186546 C172.81155,29.0186546 173.090952,28.9874695 173.090952,28.9874695 L173.090952,32.2083884 C173.090952,32.2083884 172.595361,32.3011009 171.882738,32.3011009 C169.653001,32.3011009 165.286239,31.6508487 165.286239,26.3552754 L165.286239,19.2943704 Z" id="Fill-27" fill="#FFBC00"/>
                        <path d="M181.172664,29.5759836 C183.309267,29.5759836 184.826803,27.2847189 184.826803,25.3023556 L184.826803,24.776001 L184.176551,24.776001 C182.62783,24.776001 178.880978,25.0237965 178.880978,27.4081951 C178.880978,28.5848019 179.717077,29.5759836 181.172664,29.5759836 M183.804858,22.3911809 L184.79604,22.3911809 L184.79604,21.8648264 C184.79604,19.8521208 183.525878,19.1394983 181.884444,19.1394983 C179.530809,19.1394983 177.424969,20.6570345 177.424969,20.6570345 L175.969803,17.9317064 C175.969803,17.9317064 178.416151,15.9809497 182.225373,15.9809497 C186.467816,15.9809497 188.728738,18.1795018 188.728738,22.2057558 L188.728738,28.5232745 C188.728738,28.9876802 188.976534,29.2042904 189.410176,29.2042904 L190.834999,29.2042904 L190.834999,32.1466502 L187.11849,32.1466502 C185.662902,32.1466502 185.105363,31.3725003 185.105363,30.4740312 L185.105363,30.2881847 C185.105363,29.7930153 185.198497,29.483271 185.198497,29.483271 L185.136548,29.483271 C185.136548,29.483271 183.804858,32.5179219 180.150297,32.5179219 C177.456576,32.5179219 174.916673,30.9384369 174.916673,27.7179394 C174.916673,22.8867718 181.265377,22.3911809 183.804858,22.3911809" id="Fill-29" fill="#FFBC00"/>
                        <path d="M192.969959,29.2043326 L195.261224,29.2043326 L195.261224,19.9448755 C195.261224,19.5112336 195.01385,19.2942019 194.579786,19.2942019 L192.814876,19.2942019 L192.814876,16.3522635 L196.933843,16.3522635 C198.327481,16.3522635 199.008497,17.0029372 199.008497,18.1175951 L199.008497,18.8297962 C199.008497,19.1703042 198.94697,19.5112336 198.94697,19.5112336 L199.008497,19.5112336 C199.813832,17.9009848 201.795774,15.9809918 204.397204,15.9809918 C206.596178,15.9809918 208.175242,17.0029372 208.79473,19.4180996 L208.856679,19.4180996 C209.723963,17.5600554 211.829802,15.9809918 214.338099,15.9809918 C217.527833,15.9809918 219.417062,17.839036 219.417062,21.9887663 L219.417062,29.2043326 L221.708748,29.2043326 L221.708748,32.146271 L215.483942,32.146271 L215.483942,22.7321525 C215.483942,20.9356358 215.143013,19.5731824 213.316154,19.5731824 C210.622011,19.5731824 209.290321,22.2673254 209.290321,25.1785 L209.290321,29.2043326 L211.582007,29.2043326 L211.582007,32.146271 L205.388386,32.146271 L205.388386,22.7321525 C205.388386,21.0287697 205.109827,19.5731824 203.25094,19.5731824 C200.464084,19.5731824 199.194765,22.5151208 199.194765,25.3643466 L199.194765,29.2043326 L201.455266,29.2043326 L201.455266,32.146271 L192.969959,32.146271 L192.969959,29.2043326 Z" id="Fill-31" fill="#FFBC00"/>
                        <path d="M232.700413,29.2043326 C234.868201,29.2043326 236.664297,27.4394224 236.664297,24.3116375 C236.664297,21.3073289 235.053627,19.3565722 232.731177,19.3565722 C230.687286,19.3565722 228.767293,20.8429232 228.767293,24.3424012 C228.767293,26.7891702 230.129746,29.2043326 232.700413,29.2043326 Z M224.958071,35.3979536 L224.958071,19.9760607 C224.958071,19.5419973 224.710275,19.2942019 224.277055,19.2942019 L222.511302,19.2942019 L222.511302,16.3522635 L226.568319,16.3522635 C228.023907,16.3522635 228.519498,17.0337009 228.519498,17.839036 L228.519498,17.9317485 C228.519498,18.3034417 228.488734,18.6439496 228.488734,18.6439496 L228.550261,18.6439496 C228.550261,18.6439496 229.913136,15.9809918 233.629224,15.9809918 C237.903274,15.9809918 240.62818,19.3565722 240.62818,24.2492672 C240.62818,29.2662814 237.562344,32.5179641 233.412193,32.5179641 C230.284829,32.5179641 228.860006,30.2882268 228.860006,30.2882268 L228.798057,30.2882268 C228.798057,30.2882268 228.891191,30.8457665 228.891191,31.6511016 L228.891191,35.3979536 L231.182455,35.3979536 L231.182455,38.3403134 L222.665963,38.3403134 L222.665963,35.3979536 L224.958071,35.3979536 Z" id="Fill-33" fill="#FFBC00"/>
                        <path d="M69.2862515,28.8948833 C69.8130275,28.8948833 70.4013309,28.8329345 70.8657366,28.6470879 C71.9808159,28.1826822 72.6310682,26.9437052 72.6310682,25.5500667 C72.6310682,23.6612588 71.4544614,22.3603329 69.4413344,22.3603329 L65.1988915,22.3603329 L65.1988915,28.8948833 L69.2862515,28.8948833 Z M69.0696413,19.1398355 C70.8042091,19.1398355 71.7637842,17.9316221 71.7637842,16.2598459 C71.7637842,15.1755303 71.3613274,14.2155338 70.4940435,13.7511281 C69.9676889,13.5033327 69.3793855,13.4106202 68.6052356,13.4106202 L65.1988915,13.4106202 L65.1988915,19.1398355 L69.0696413,19.1398355 Z M58.5096797,29.1114936 L61.1418738,29.1114936 L61.1418738,13.2243522 L58.5096797,13.2243522 L58.5096797,10.1589375 L68.6052356,10.1589375 C70.246248,10.1589375 71.3925125,10.2824138 72.5383556,10.7472409 C74.5202974,11.5213909 75.8827508,13.379435 75.8827508,15.8257826 C75.8827508,17.8700947 74.8919906,19.6350049 73.1886078,20.5330525 L73.1886078,20.5954228 C75.6349554,21.3383876 76.7500347,23.4754123 76.7500347,25.7978621 C76.7500347,28.8636982 74.7680929,31.0626717 72.3836942,31.7748728 C71.2993785,32.0846171 70.2774332,32.1465659 69.1008264,32.1465659 L58.5096797,32.1465659 L58.5096797,29.1114936 Z" id="Fill-35" fill="#424242"/>
                        <path d="M80.6193516,13.1006652 L78.1725826,13.1006652 L78.1725826,10.1587268 L84.5212865,10.1587268 L84.5212865,26.881967 C84.5212865,28.3063692 84.8310307,29.0497555 86.1315352,29.0497555 C86.5651772,29.0497555 86.8749214,29.0185703 86.8749214,29.0185703 L86.8749214,32.1775404 C86.8749214,32.1775404 86.2246692,32.2702529 85.4505193,32.2702529 C82.9422229,32.2702529 80.6193516,31.4341541 80.6193516,27.1297624 L80.6193516,13.1006652 Z" id="Fill-37" fill="#424242"/>
                        <path d="M97.4654781,29.1734846 C100.004538,29.1734846 102.141563,27.1915427 102.141563,24.249183 C102.141563,21.3384297 100.004538,19.3253027 97.4654781,19.3253027 C94.8948115,19.3253027 92.7582082,21.3384297 92.7582082,24.249183 C92.7582082,27.1915427 94.8948115,29.1734846 97.4654781,29.1734846 M97.434293,15.9809075 C102.265882,15.9809075 106.136632,19.4184367 106.136632,24.249183 C106.136632,29.1115357 102.265882,32.5183012 97.4654781,32.5183012 C92.6343105,32.5183012 88.7631393,29.1115357 88.7631393,24.249183 C88.7631393,19.4184367 92.6343105,15.9809075 97.434293,15.9809075" id="Fill-39" fill="#424242"/>
                        <path d="M116.726556,15.9808233 C119.35875,15.9808233 123.198736,16.9720049 123.198736,19.7588604 L123.198736,21.9266488 L119.792392,21.9266488 L119.792392,20.8739398 C119.792392,19.8208093 118.182144,19.3256399 116.850454,19.3256399 C113.970465,19.3256399 112.205133,21.3075817 112.205133,24.1875712 C112.205133,27.4392539 114.466055,29.204164 117.160198,29.204164 C119.389936,29.204164 121.216795,27.9656084 122.084079,27.2845924 L123.477717,30.071448 C122.393823,31.0933933 119.947475,32.5182169 116.943588,32.5182169 C112.328609,32.5182169 108.241249,29.390432 108.241249,24.2802838 C108.241249,19.5730139 111.864625,15.9808233 116.726556,15.9808233" id="Fill-41" fill="#424242"/>
                        <path d="M125.365261,29.2043326 L127.656947,29.2043326 L127.656947,13.1005809 L125.210599,13.1005809 L125.210599,10.1586425 L131.590067,10.1586425 L131.590067,22.3296957 L133.664721,22.3296957 L136.235388,19.2942019 L134.408107,19.2942019 L134.408107,16.3522635 L141.995367,16.3522635 L141.995367,19.2942019 L139.951476,19.2942019 L136.513947,23.3512196 L136.513947,23.4131684 C136.544711,23.4131684 137.102672,23.692149 137.721739,24.7448581 L139.951476,28.6472143 C140.230035,29.11162 140.509016,29.2043326 141.251981,29.2043326 L142.15045,29.2043326 L142.15045,32.146271 L139.208511,32.146271 C137.8764,32.146271 137.350046,31.9296607 136.730979,30.7838176 L133.881753,25.7979885 C133.572009,25.2404489 133.076418,25.2096852 132.519299,25.2096852 L131.590067,25.2096852 L131.590067,29.2043326 L133.293028,29.2043326 L133.293028,32.146271 L125.365261,32.146271 L125.365261,29.2043326 Z" id="Fill-43" fill="#424242"/>
                    </g>
                </g>
            </g>
        </g>
    </g>
</svg>
