<?xml version="1.0" encoding="utf-8"?>
<svg version="1.1" xmlns="http://www.w3.org/2000/svg" x="0px" y="0px"
	 viewBox="0 0 3729 1185" style="enable-background:new 0 0 3729 1185;" xml:space="preserve">
<style type="text/css">
	.st0{fill-rule:evenodd;clip-rule:evenodd;fill:#212222;}
	.st1{fill:#212222;}
	.st2{fill-rule:evenodd;clip-rule:evenodd;fill:#FAB613;}
	.st3{fill-rule:evenodd;clip-rule:evenodd;fill:#FFE9C4;enable-background:new    ;}
	.st4{fill:#FAB613;}
	.st5{fill:#FFE9C4;enable-background:new    ;}
</style>
<g>
	<path id="Fill-25_3_" class="st0" d="M2269,325.3v14.2c0,12.3,15.6,19.6,33.5,19.6c19.3,0,33-8.3,33-23.6
		c0-19.3-21.7-25.5-43.7-34.1c-25.5-9.7-50.4-21.2-50.4-55.2c0-38.3,31.1-53.1,63.8-53.1c30,0,60.3,11.5,60.3,33.5v24.9h-31.9v-12.9
		c0-9.7-14.2-14.7-28.4-14.7c-15.6,0-28.4,6.4-28.4,20.9c0,17.4,17.7,23.6,37.5,31.1c28.4,10.2,56.8,21.4,56.8,57.1
		c0,38.9-32.7,56.8-68.6,56.8c-31.6,0-65.4-14.2-65.4-42.9v-21.7H2269z"/>
	<path id="Fill-27_3_" class="st0" d="M2410,275.4h-20.9v-25.5h22v-37.3h33v37.3h31.1v25.5H2444v57.6c0,23.3,17.7,26.5,27.3,26.5
		c3.8,0,6.2-0.3,6.2-0.3v27.9c0,0-4.3,0.8-10.5,0.8c-19.3,0-57.1-5.6-57.1-51.5V275.4z"/>
	<path id="Fill-29_3_" class="st0" d="M2547.5,364.4c18.5,0,31.6-19.8,31.6-37v-4.6h-5.6c-13.4,0-45.8,2.1-45.8,22.8
		C2527.7,355.8,2534.9,364.4,2547.5,364.4 M2570.3,302.2h8.6v-4.6c0-17.4-11-23.6-25.2-23.6c-20.4,0-38.6,13.1-38.6,13.1l-12.6-23.6
		c0,0,21.2-16.9,54.2-16.9c36.7,0,56.3,19,56.3,53.9v54.7c0,4,2.1,5.9,5.9,5.9h12.3v25.5H2599c-12.6,0-17.4-6.7-17.4-14.5v-1.6
		c0-4.3,0.8-7,0.8-7h-0.5c0,0-11.5,26.3-43.2,26.3c-23.3,0-45.3-13.7-45.3-41.6C2493.3,306.5,2548.3,302.2,2570.3,302.2"/>
	<path id="Fill-31_3_" class="st0" d="M2649.7,361.2h19.8V281c0-3.8-2.1-5.6-5.9-5.6h-15.3v-25.5h35.7c12.1,0,18,5.6,18,15.3v6.2
		c0,2.9-0.5,5.9-0.5,5.9h0.5c7-13.9,24.1-30.6,46.7-30.6c19,0,32.7,8.8,38.1,29.8h0.5c7.5-16.1,25.7-29.8,47.5-29.8
		c27.6,0,44,16.1,44,52v62.5h19.8v25.5h-53.9v-81.5c0-15.6-3-27.3-18.8-27.3c-23.3,0-34.9,23.3-34.9,48.5v34.9h19.8v25.5h-53.6
		v-81.5c0-14.7-2.4-27.3-18.5-27.3c-24.1,0-35.1,25.5-35.1,50.1v33.2h19.6v25.5h-73.5V361.2z"/>
	<path id="Fill-33_3_" class="st0" d="M2993.6,361.2c18.8,0,34.3-15.3,34.3-42.4c0-26-13.9-42.9-34.1-42.9
		c-17.7,0-34.3,12.9-34.3,43.2C2959.6,340.3,2971.4,361.2,2993.6,361.2z M2926.6,414.8V281.3c0-3.8-2.1-5.9-5.9-5.9h-15.3v-25.5
		h35.1c12.6,0,16.9,5.9,16.9,12.9v0.8c0,3.2-0.3,6.2-0.3,6.2h0.5c0,0,11.8-23.1,44-23.1c37,0,60.6,29.2,60.6,71.6
		c0,43.4-26.5,71.6-62.5,71.6c-27.1,0-39.4-19.3-39.4-19.3h-0.5c0,0,0.8,4.8,0.8,11.8v32.4h19.8v25.5h-73.7v-25.5H2926.6z"/>
	<path id="Fill-35_3_" class="st0" d="M1578.8,358.5c4.6,0,9.7-0.5,13.7-2.1c9.7-4,15.3-14.7,15.3-26.8c0-16.4-10.2-27.6-27.6-27.6
		h-36.7v56.6H1578.8z M1576.9,274.1c15,0,23.3-10.5,23.3-24.9c0-9.4-3.5-17.7-11-21.7c-4.6-2.1-9.7-2.9-16.4-2.9h-29.5v49.6H1576.9z
		 M1485.5,360.4h22.8V222.9h-22.8v-26.5h87.4c14.2,0,24.1,1.1,34.1,5.1c17.2,6.7,29,22.8,29,44c0,17.7-8.6,33-23.3,40.8v0.5
		c21.2,6.4,30.8,24.9,30.8,45c0,26.5-17.2,45.6-37.8,51.7c-9.4,2.7-18.2,3.2-28.4,3.2h-91.7V360.4z"/>
	<path id="Fill-37_3_" class="st0" d="M1676.9,221.8h-21.2v-25.5h55v144.8c0,12.3,2.7,18.8,13.9,18.8c3.8,0,6.4-0.3,6.4-0.3V387
		c0,0-5.6,0.8-12.3,0.8c-21.7,0-41.8-7.2-41.8-44.5V221.8z"/>
	<path id="Fill-39_3_" class="st0" d="M1822.8,360.9c22,0,40.5-17.2,40.5-42.6c0-25.2-18.5-42.6-40.5-42.6
		c-22.3,0-40.8,17.4-40.8,42.6C1782,343.8,1800.5,360.9,1822.8,360.9 M1822.5,246.7c41.8,0,75.3,29.8,75.3,71.6
		c0,42.1-33.5,71.6-75.1,71.6c-41.8,0-75.3-29.5-75.3-71.6C1747.4,276.5,1781,246.7,1822.5,246.7"/>
	<path id="Fill-41_3_" class="st0" d="M1989.5,246.7c22.8,0,56,8.6,56,32.7v18.8h-29.5v-9.1c0-9.1-13.9-13.4-25.5-13.4
		c-24.9,0-40.2,17.2-40.2,42.1c0,28.2,19.6,43.4,42.9,43.4c19.3,0,35.1-10.7,42.6-16.6l12.1,24.1c-9.4,8.8-30.6,21.2-56.6,21.2
		c-40,0-75.3-27.1-75.3-71.3C1916.1,277.8,1947.5,246.7,1989.5,246.7"/>
	<path id="Fill-43_3_" class="st0" d="M2064.3,361.2h19.8V221.8H2063v-25.5h55.2v105.4h18l22.3-26.3h-15.8v-25.5h65.7v25.5h-17.7
		l-29.8,35.1v0.5c0.3,0,5.1,2.4,10.5,11.5l19.3,33.8c2.4,4,4.8,4.8,11.3,4.8h7.8v25.5h-25.5c-11.5,0-16.1-1.9-21.5-11.8l-24.7-43.2
		c-2.7-4.8-7-5.1-11.8-5.1h-8v34.6h14.7v25.5h-68.6V361.2z"/>
</g>
<g>
	<path class="st1" d="M1435.6,911.2h21.8c9.9,0,14.8-5.6,15.5-15.5l32.4-406h95.7l102.7,237.8c12,28.9,24.6,66.8,24.6,66.8h1.4
		c0,0,12.7-38,24.6-66.8l102.7-237.8h95.7l32.4,406c0.7,9.8,5.6,15.5,15.5,15.5h21.8v78.1H1943c-33.1,0-44.3-14.1-47.1-47.8
		l-16.9-222.4c-2.8-33.1-0.7-77.4-0.7-77.4h-1.4c0,0-14.8,49.3-27.4,77.4l-83,184.4h-74.6l-83-184.4c-12.7-28.1-27.4-78.1-27.4-78.1
		h-1.4c0,0,2.1,45-0.7,78.1L1563,941.5c-2.8,33.8-14.8,47.8-47.8,47.8h-79.5V911.2z"/>
	<path class="st1" d="M2271.6,764.2h11.3v-2.8c0-51.4-20.4-70.4-66.1-70.4c-16.2,0-47.9,4.2-47.9,23.9v19h-83v-38
		c0-66.8,94.3-73.9,131.6-73.9c119.6,0,154.8,62.6,154.8,142.8v133.7c0,9.8,5.6,15.5,15.5,15.5h28.1v75.3h-80.2
		c-33.1,0-45.7-18.3-45.7-39.4c0-9.1,0.7-15.5,0.7-15.5h-1.4c0,0-27.4,63.3-108.4,63.3c-64,0-122.4-40.1-122.4-111.9
		C2058.4,773.3,2213.2,764.2,2271.6,764.2z M2202.7,928.1c47.8,0,81.6-50.7,81.6-94.3v-8.4h-15.5c-46.4,0-120.3,6.3-120.3,56.3
		C2148.5,905.6,2166.1,928.1,2202.7,928.1z"/>
	<path class="st1" d="M2487.7,721.9c0-10.6-5.6-15.5-15.5-15.5h-28.1v-76h81.6c31.7,0,47.8,13.4,47.8,43.6v21.1
		c0,13.4-1.4,22.5-1.4,22.5h1.4c16.2-51.4,59.1-92.2,114-92.2c7.7,0,16.2,1.4,16.2,1.4v88c0,0-9.2-1.4-21.8-1.4
		c-38,0-81.6,21.8-97.8,75.3c-4.9,17.6-7.7,37.3-7.7,58.4v142.1h-88.7V721.9z"/>
	<path class="st1" d="M2767.7,581.2c0-10.6-5.6-15.5-15.5-15.5h-28.1v-76h85.1c33.1,0,47.8,7.7,47.8,40.8v226.6h26.7
		c11.3,0,26-2.1,33.8-13.4l73.2-113.3h99.2l-90.8,135.1c-15.5,22.5-26.7,28.1-26.7,28.1v1.4c0,0,12.7,4.9,25.3,28.1l40.8,77.4
		c5.6,10.6,12.7,13.4,29.6,13.4h23.9v75.3H3026c-30.3,0-42.2-4.9-56.3-31l-59.8-112.6c-7-12.7-21.8-13.4-33.1-13.4h-19.7v156.9
		h-89.4V581.2z"/>
	<path class="st1" d="M3300.5,622c102.7,0,159,75.3,159,170.3c0,10.6-2.1,33.1-2.1,33.1h-247.7c7,63.3,53.5,96.4,107.7,96.4
		c57.7,0,100.6-40.1,100.6-40.1l37.3,61.9c0,0-54.9,54.2-144.3,54.2c-118.9,0-192.8-85.8-192.8-187.9
		C3118.2,699.4,3192.8,622,3300.5,622z M3368,763.5c-1.4-42.9-31-72.5-67.6-72.5c-45.7,0-78.1,27.4-88,72.5H3368z"/>
	<path class="st1" d="M3547.5,701.5H3501v-71.1h48.6v-97.8h87.3v97.8h81.6v71.1h-81.6v145c0,59.1,46.4,67.6,71.1,67.6
		c9.9,0,16.2-1.4,16.2-1.4v78.1c0,0-11.3,2.1-27.4,2.1c-50,0-149.2-14.8-149.2-135.1V701.5z"/>
</g>
<path id="Fill-7_7_" class="st2" d="M102.9,595.4c0,270.8,220.3,491.1,491.1,491.1S1085,866.2,1085,595.4h92.9
	c0,322-262,584-584,584s-584-262-584-584H102.9z"/>
<path id="Fill-9_7_" class="st3" d="M593.9,104.4V11.5c-322,0-584,262-584,584h92.9C102.9,324.7,323.2,104.4,593.9,104.4"/>
<path id="Fill-23_7_" class="st2" d="M1122.4,351.6c-29.7-64.5-69.8-121-117.4-168.5l-67,64.5c40.6,40.2,74.7,88.1,100,142.9
	L1122.4,351.6z"/>
<path class="st3" d="M593.9,809.8c59.2,0,112.8-24,151.6-62.8l-65.5-65.5c-22.1,22.1-52.5,35.8-86.1,35.8
	c-33.6,0-64.1-13.7-86.1-35.8L442.3,747C481.1,785.8,534.7,809.8,593.9,809.8z"/>
<path class="st4" d="M993.4,591.9v-0.3c0-5.7-1.1-11-3.1-16c0-0.1,0-0.2,0-0.3l-0.1,0c-6.5-16.2-22.3-27.6-40.7-27.6h-67.2
	c-23.5-44.6-72.8-138-84.4-160c-1.7-3.2-3.4-6.5-5-9.8c-16.3-32-40.9-80.4-101.4-80.4h-16.8v92.6h16.8c0.3,0,0.5,0,0.7,0
	c4.7,3.4,13.1,19.8,18.1,29.7c1.8,3.6,3.7,7.2,5.6,10.8c8.5,16.2,37.5,71.2,61.6,116.9H404.4c20.7-45.5,46.1-101.2,54.4-118.9
	l1.3-2.8c5.3-11.5,15.3-32.8,20.8-35.7c0,0,0.4-0.1,1.3-0.1h29.6v-92.6h-29.6c-64.4,0-89.5,53.8-106,89.3l-1.3,2.8
	c-11.2,23.9-51.6,112.7-72.2,158h-64.4c-24.2,0-43.9,19.8-43.9,43.9v4.8c0,0.7,0.1,1.4,0.1,2.1C196.1,817.8,374.3,995,593.9,995
	c220.7,0,399.6-178.9,399.6-399.6C993.5,594.1,993.5,593,993.4,591.9z M593.9,902.4c-154,0-281.9-114-303.7-262.1h607.3
	C875.8,788.4,748,902.4,593.9,902.4z"/>
<rect x="511.8" y="297.6" class="st5" width="163" height="92.6"/>
</svg>
