<?xml version="1.0" encoding="utf-8"?>
<!-- Generator: Adobe Illustrator 22.0.0, SVG Export Plug-In . SVG Version: 6.00 Build 0)  -->
<svg version="1.1" id="Layer_1" xmlns="http://www.w3.org/2000/svg" xmlns:xlink="http://www.w3.org/1999/xlink" x="0px" y="0px"
	 viewBox="0 0 241 43" style="enable-background:new 0 0 241 43;" xml:space="preserve">
<style type="text/css">
	.st0{filter:url(#Adobe_OpacityMaskFilter);}
	.st1{fill:#FFFFFF;}
	.st2{mask:url(#mask-2_1_);fill:#FFBC00;}
	.st3{opacity:0.3;}
	.st4{filter:url(#Adobe_OpacityMaskFilter_1_);}
	.st5{mask:url(#mask-4_1_);fill:#FFBC00;}
	.st6{fill:#FFBC00;}
	.st7{opacity:0.3;fill:#FFBC00;enable-background:new    ;}
	.st8{fill:#424242;}
</style>
<g id="Casino_LP">
	<g id="_x31_.0-BST_x5F_LP" transform="translate(-19.000000, -56.000000)">
		<g id="TOP">
			<g id="Logo" transform="translate(19.000000, 56.000000)">
				<g>
					<g id="Group-3" transform="translate(21.071038, 0.000000)">
						<g id="Clip-2">
						</g>
						<defs>
							<filter id="Adobe_OpacityMaskFilter" filterUnits="userSpaceOnUse" x="0" y="0" width="21.1" height="42.1">
								<feColorMatrix  type="matrix" values="1 0 0 0 0  0 1 0 0 0  0 0 1 0 0  0 0 0 1 0"/>
							</filter>
						</defs>
						<mask maskUnits="userSpaceOnUse" x="0" y="0" width="21.1" height="42.1" id="mask-2_1_">
							<g class="st0">
								<polygon id="path-1_1_" class="st1" points="0,0 21.1,0 21.1,42.1 0,42.1 								"/>
							</g>
						</mask>
						<path id="Fill-1" class="st2" d="M0,42.1c11.6,0,21.1-9.5,21.1-21.1S11.6,0,0,0v2.6c10.2,0,18.5,8.3,18.5,18.5
							c0,10.2-8.3,18.5-18.5,18.5V42.1z"/>
					</g>
					<g id="Group-6" transform="translate(0.000000, 21.071038)" class="st3">
						<g id="Clip-5">
						</g>
						<defs>
							<filter id="Adobe_OpacityMaskFilter_1_" filterUnits="userSpaceOnUse" x="0" y="0" width="21.1" height="21.1">
								<feColorMatrix  type="matrix" values="1 0 0 0 0  0 1 0 0 0  0 0 1 0 0  0 0 0 1 0"/>
							</filter>
						</defs>
						<mask maskUnits="userSpaceOnUse" x="0" y="0" width="21.1" height="21.1" id="mask-4_1_">
							<g class="st4">
								<polygon id="path-3_1_" class="st1" points="0,0 21.1,0 21.1,21.1 0,21.1 								"/>
							</g>
						</mask>
						<path id="Fill-4" class="st5" d="M2.6,0H0c0,11.6,9.5,21.1,21.1,21.1v-2.6C10.9,18.5,2.6,10.2,2.6,0"/>
					</g>
					<path id="Fill-7" class="st6" d="M7.5,21.1c0,7.5,6.1,13.6,13.6,13.6s13.6-6.1,13.6-13.6h2.6c0,8.9-7.2,16.1-16.1,16.1
						S4.9,30,4.9,21.1H7.5z"/>
					<path id="Fill-9" class="st7" d="M21.1,7.5V4.9c-8.9,0-16.1,7.2-16.1,16.1h2.6C7.5,13.6,13.6,7.5,21.1,7.5"/>
					<path id="Fill-11" class="st6" d="M21.1,12.5c-4.7,0-8.6,3.9-8.6,8.6s3.9,8.6,8.6,8.6v2.6c-6.2,0-11.2-5-11.2-11.2
						s5-11.2,11.2-11.2"/>
					<path id="Fill-13" class="st7" d="M21.1,9.9v2.6c4.7,0,8.6,3.9,8.6,8.6h2.6C32.2,14.9,27.2,9.9,21.1,9.9"/>
					<path id="Fill-15" class="st6" d="M21.1,14.8c3.4,0,6.2,2.8,6.2,6.2c0,3.4-2.8,6.2-6.2,6.2v-2.6c2,0,3.7-1.6,3.7-3.7
						s-1.6-3.7-3.7-3.7"/>
					<path id="Fill-17" class="st7" d="M21.1,14.8c-3.4,0-6.2,2.8-6.2,6.2h2.6c0-2,1.6-3.7,3.7-3.7V14.8z"/>
					<path id="Fill-19" class="st6" d="M28.9,29l-1.8-1.8c0,0,0,0,0,0c-0.7,0.7-1.5,1.3-2.5,1.8l1.1,2.3C26.9,30.7,28,29.9,28.9,29"
						/>
					<path id="Fill-21" class="st6" d="M12.2,2C9.9,3,7.8,4.5,6.1,6.2l1.8,1.9c1.5-1.5,3.3-2.8,5.4-3.8L12.2,2z"/>
					<path id="Fill-23" class="st6" d="M35.7,14.3c-0.8-1.8-1.9-3.3-3.2-4.7l-1.8,1.8c1.1,1.1,2.1,2.4,2.8,3.9L35.7,14.3z"/>
					<path id="Fill-25" class="st6" d="M149,25.1v1.6c0,1.4,1.8,2.3,3.9,2.3c2.2,0,3.8-1,3.8-2.7c0-2.2-2.5-2.9-5-3.9
						c-2.9-1.1-5.8-2.4-5.8-6.4c0-4.4,3.6-6.1,7.4-6.1c3.5,0,7,1.3,7,3.9v2.9h-3.7v-1.5c0-1.1-1.6-1.7-3.3-1.7
						c-1.8,0-3.3,0.7-3.3,2.4c0,2,2,2.7,4.3,3.6c3.3,1.2,6.6,2.5,6.6,6.6c0,4.5-3.8,6.6-7.9,6.6c-3.7,0-7.6-1.6-7.6-5v-2.5H149z"/>
					<path id="Fill-27" class="st6" d="M165.3,19.3h-2.4v-2.9h2.5V12h3.8v4.3h3.6v2.9h-3.6V26c0,2.7,2,3.1,3.2,3.1
						c0.4,0,0.7,0,0.7,0v3.2c0,0-0.5,0.1-1.2,0.1c-2.2,0-6.6-0.7-6.6-5.9V19.3z"/>
					<path id="Fill-29" class="st6" d="M181.2,29.6c2.1,0,3.7-2.3,3.7-4.3v-0.5h-0.7c-1.5,0-5.3,0.2-5.3,2.6
						C178.9,28.6,179.7,29.6,181.2,29.6 M183.8,22.4h1v-0.5c0-2-1.3-2.7-2.9-2.7c-2.4,0-4.5,1.5-4.5,1.5l-1.5-2.7c0,0,2.4-2,6.3-2
						c4.2,0,6.5,2.2,6.5,6.2v6.3c0,0.5,0.2,0.7,0.7,0.7h1.4v2.9h-3.7c-1.5,0-2-0.8-2-1.7v-0.2c0-0.5,0.1-0.8,0.1-0.8h-0.1
						c0,0-1.3,3-5,3c-2.7,0-5.2-1.6-5.2-4.8C174.9,22.9,181.3,22.4,183.8,22.4"/>
					<path id="Fill-31" class="st6" d="M193,29.2h2.3v-9.3c0-0.4-0.2-0.7-0.7-0.7h-1.8v-2.9h4.1c1.4,0,2.1,0.7,2.1,1.8v0.7
						c0,0.3-0.1,0.7-0.1,0.7h0.1c0.8-1.6,2.8-3.5,5.4-3.5c2.2,0,3.8,1,4.4,3.4h0.1c0.9-1.9,3-3.4,5.5-3.4c3.2,0,5.1,1.9,5.1,6v7.2
						h2.3v2.9h-6.2v-9.4c0-1.8-0.3-3.2-2.2-3.2c-2.7,0-4,2.7-4,5.6v4h2.3v2.9h-6.2v-9.4c0-1.7-0.3-3.2-2.1-3.2
						c-2.8,0-4.1,2.9-4.1,5.8v3.8h2.3v2.9H193V29.2z"/>
					<path id="Fill-33" class="st6" d="M232.7,29.2c2.2,0,4-1.8,4-4.9c0-3-1.6-5-3.9-5c-2,0-4,1.5-4,5
						C228.8,26.8,230.1,29.2,232.7,29.2z M225,35.4V20c0-0.4-0.2-0.7-0.7-0.7h-1.8v-2.9h4.1c1.5,0,2,0.7,2,1.5v0.1
						c0,0.4,0,0.7,0,0.7h0.1c0,0,1.4-2.7,5.1-2.7c4.3,0,7,3.4,7,8.3c0,5-3.1,8.3-7.2,8.3c-3.1,0-4.6-2.2-4.6-2.2h-0.1
						c0,0,0.1,0.6,0.1,1.4v3.7h2.3v2.9h-8.5v-2.9H225z"/>
					<path id="Fill-35" class="st8" d="M69.3,28.9c0.5,0,1.1-0.1,1.6-0.2c1.1-0.5,1.8-1.7,1.8-3.1c0-1.9-1.2-3.2-3.2-3.2h-4.2v6.5
						H69.3z M69.1,19.1c1.7,0,2.7-1.2,2.7-2.9c0-1.1-0.4-2-1.3-2.5c-0.5-0.2-1.1-0.3-1.9-0.3h-3.4v5.7H69.1z M58.5,29.1h2.6V13.2
						h-2.6v-3.1h10.1c1.6,0,2.8,0.1,3.9,0.6c2,0.8,3.3,2.6,3.3,5.1c0,2-1,3.8-2.7,4.7v0.1c2.4,0.7,3.6,2.9,3.6,5.2
						c0,3.1-2,5.3-4.4,6c-1.1,0.3-2.1,0.4-3.3,0.4H58.5V29.1z"/>
					<path id="Fill-37" class="st8" d="M80.6,13.1h-2.4v-2.9h6.3v16.7c0,1.4,0.3,2.2,1.6,2.2c0.4,0,0.7,0,0.7,0v3.2
						c0,0-0.7,0.1-1.4,0.1c-2.5,0-4.8-0.8-4.8-5.1V13.1z"/>
					<path id="Fill-39" class="st8" d="M97.5,29.2c2.5,0,4.7-2,4.7-4.9c0-2.9-2.1-4.9-4.7-4.9c-2.6,0-4.7,2-4.7,4.9
						C92.8,27.2,94.9,29.2,97.5,29.2 M97.4,16c4.8,0,8.7,3.4,8.7,8.3c0,4.9-3.9,8.3-8.7,8.3c-4.8,0-8.7-3.4-8.7-8.3
						C88.8,19.4,92.6,16,97.4,16"/>
					<path id="Fill-41" class="st8" d="M116.7,16c2.6,0,6.5,1,6.5,3.8v2.2h-3.4v-1.1c0-1.1-1.6-1.5-2.9-1.5c-2.9,0-4.6,2-4.6,4.9
						c0,3.3,2.3,5,5,5c2.2,0,4.1-1.2,4.9-1.9l1.4,2.8c-1.1,1-3.5,2.4-6.5,2.4c-4.6,0-8.7-3.1-8.7-8.2C108.2,19.6,111.9,16,116.7,16"
						/>
					<path id="Fill-43" class="st8" d="M125.4,29.2h2.3V13.1h-2.4v-2.9h6.4v12.2h2.1l2.6-3h-1.8v-2.9h7.6v2.9h-2l-3.4,4.1v0.1
						c0,0,0.6,0.3,1.2,1.3l2.2,3.9c0.3,0.5,0.6,0.6,1.3,0.6h0.9v2.9h-2.9c-1.3,0-1.9-0.2-2.5-1.4l-2.8-5c-0.3-0.6-0.8-0.6-1.4-0.6
						h-0.9v4h1.7v2.9h-7.9V29.2z"/>
				</g>
			</g>
		</g>
	</g>
</g>
</svg>
